<svg id="visual" viewBox="0 0 900 600" width="900" height="600" xmlns="http://www.w3.org/2000/svg" xmlns:xlink="http://www.w3.org/1999/xlink" version="1.1"><rect x="0" y="0" width="900" height="600" fill="#001220"></rect><path d="M0 373L25 371C50 369 100 365 150 366.2C200 367.3 250 373.7 300 383.8C350 394 400 408 450 417.2C500 426.3 550 430.7 600 424C650 417.3 700 399.7 750 400.3C800 401 850 420 875 429.5L900 439L900 601L875 601C850 601 800 601 750 601C700 601 650 601 600 601C550 601 500 601 450 601C400 601 350 601 300 601C250 601 200 601 150 601C100 601 50 601 25 601L0 601Z" fill="#79d9f7"></path><path d="M0 406L25 414.7C50 423.3 100 440.7 150 451.5C200 462.3 250 466.7 300 463.5C350 460.3 400 449.7 450 441.3C500 433 550 427 600 424C650 421 700 421 750 422.5C800 424 850 427 875 428.5L900 430L900 601L875 601C850 601 800 601 750 601C700 601 650 601 600 601C550 601 500 601 450 601C400 601 350 601 300 601C250 601 200 601 150 601C100 601 50 601 25 601L0 601Z" fill="#22b7fa"></path><path d="M0 506L25 503.8C50 501.7 100 497.3 150 485.8C200 474.3 250 455.7 300 448.3C350 441 400 445 450 450.2C500 455.3 550 461.7 600 463.7C650 465.7 700 463.3 750 469.3C800 475.3 850 489.7 875 496.8L900 504L900 601L875 601C850 601 800 601 750 601C700 601 650 601 600 601C550 601 500 601 450 601C400 601 350 601 300 601C250 601 200 601 150 601C100 601 50 601 25 601L0 601Z" fill="#008ff5"></path><path d="M0 506L25 501.8C50 497.7 100 489.3 150 486.8C200 484.3 250 487.7 300 487.7C350 487.7 400 484.3 450 484.3C500 484.3 550 487.7 600 494.5C650 501.3 700 511.7 750 511.5C800 511.3 850 500.7 875 495.3L900 490L900 601L875 601C850 601 800 601 750 601C700 601 650 601 600 601C550 601 500 601 450 601C400 601 350 601 300 601C250 601 200 601 150 601C100 601 50 601 25 601L0 601Z" fill="#0061e4"></path><path d="M0 544L25 546.2C50 548.3 100 552.7 150 553.5C200 554.3 250 551.7 300 552.7C350 553.7 400 558.3 450 558.2C500 558 550 553 600 553.3C650 553.7 700 559.3 750 556.8C800 554.3 850 543.7 875 538.3L900 533L900 601L875 601C850 601 800 601 750 601C700 601 650 601 600 601C550 601 500 601 450 601C400 601 350 601 300 601C250 601 200 601 150 601C100 601 50 601 25 601L0 601Z" fill="#2429c7"></path></svg>